<svg width="44" height="44" viewBox="0 0 44 44" version="1.1" xmlns="http://www.w3.org/2000/svg" xmlns:xlink="http://www.w3.org/1999/xlink" xmlns:figma="http://www.figma.com/figma/ns">
<title>games-icon</title>
<desc>Created using Figma</desc>
<g id="Canvas" transform="translate(-34 -117)" figma:type="canvas">
<mask id="mask0_alpha" mask-type="alpha">
<path d="M 34 117L 78 117L 78 161L 34 161L 34 117Z" fill="#FFFFFF"/>
</mask>
<g id="games-icon" style="mix-blend-mode:normal;" mask="url(#mask0_alpha)" figma:type="frame">
<g id="games-icon" style="mix-blend-mode:normal;" figma:type="vector">
<use xlink:href="#path0_fill" transform="translate(34.446 124.759)" fill="#FFFFFF" style="mix-blend-mode:normal;"/>
</g>
</g>
</g>
<defs>
<path id="path0_fill" d="M 39.1554 5.03664C 33.4759 -4.29372 24.9202 2.19752 24.9202 2.19752C 24.3653 2.61686 23.3422 2.96162 22.647 2.96323L 20.3553 2.96483C 19.6601 2.96563 18.6369 2.62087 18.0828 2.20153C 18.0828 2.20153 9.52632 -4.29131 3.84602 5.03905C -1.83268 14.3662 0.455799 24.524 0.455799 24.524C 0.856724 27.0111 2.17817 28.6708 4.67192 28.4624C 7.15846 28.2547 12.5557 21.7643 12.5557 21.7643C 13.0015 21.2295 13.9357 20.7925 14.6293 20.7925L 28.3682 20.7901C 29.0626 20.7901 29.9959 21.2271 30.4409 21.7619C 30.4409 21.7619 35.839 28.2523 38.3295 28.46C 40.8201 28.6684 42.1447 27.0071 42.5433 24.5216C 42.5425 24.5216 44.8349 14.3654 39.1554 5.03664ZM 16.3372 12.6311L 13.3912 12.6311L 13.3912 15.4703C 13.3912 15.4703 12.7674 15.9465 11.802 15.9345C 10.8381 15.9201 10.4019 15.4149 10.4019 15.4149L 10.4019 12.6319L 7.61952 12.6319C 7.61952 12.6319 7.27232 12.276 7.1793 11.3387C 7.08789 10.4014 7.56339 9.64369 7.56339 9.64369L 10.5102 9.64369L 10.5102 6.69794C 10.5102 6.69794 11.1164 6.37322 11.988 6.39807C 12.8604 6.42533 13.4995 6.75326 13.4995 6.75326L 13.4875 9.64289L 16.2699 9.64289C 16.2699 9.64289 16.7558 10.2667 16.7959 11.0204C 16.836 11.7748 16.3372 12.6311 16.3372 12.6311ZM 29.85 15.8671C 28.5598 15.8671 27.5198 14.824 27.5198 13.5356C 27.5198 12.2447 28.5598 11.204 29.85 11.204C 31.1345 11.204 32.1826 12.2447 32.1826 13.5356C 32.1826 14.8248 31.1345 15.8671 29.85 15.8671ZM 29.85 9.45207C 28.5598 9.45207 27.5198 8.40975 27.5198 7.12128C 27.5198 5.83041 28.5598 4.78969 29.85 4.78969C 31.1345 4.78969 32.1826 5.83041 32.1826 7.12128C 32.1826 8.41055 31.1345 9.45207 29.85 9.45207ZM 35.657 12.8957C 34.3668 12.8957 33.3268 11.8534 33.3268 10.5641C 33.3268 9.27407 34.3668 8.23255 35.657 8.23255C 36.9415 8.23255 37.9896 9.27407 37.9896 10.5641C 37.9896 11.8534 36.9415 12.8957 35.657 12.8957Z"/>
</defs>
</svg>
