<svg width="168" height="32" viewBox="0 0 168 32" version="1.1" xmlns="http://www.w3.org/2000/svg" xmlns:xlink="http://www.w3.org/1999/xlink" xmlns:figma="http://www.figma.com/figma/ns">
<title>Logo</title>
<desc>Created using Figma</desc>
<g id="Canvas" transform="translate(-25 -24)" figma:type="canvas">
<g id="Logo" style="mix-blend-mode:normal;" figma:type="instance">
<g id="Canvas" style="mix-blend-mode:normal;" figma:type="frame">
<g id="CRITTERS" style="mix-blend-mode:normal;isolation:isolate;" figma:type="frame">
<g id="CRITTERS" style="mix-blend-mode:normal;isolation:isolate;" figma:type="frame">
<g id="Vector" style="mix-blend-mode:normal;isolation:isolate;" figma:type="vector">
<use xlink:href="#path0_fill" transform="translate(25 24.649)" fill="#FFFFFF" style="mix-blend-mode:normal;"/>
</g>
</g>
</g>
</g>
</g>
</g>
<defs>
<path id="path0_fill" d="M 12.432 29.862C 8.344 29.862 5.25 28.686 3.15 26.334C 1.05 23.982 2.86102e-08 20.944 2.86102e-08 17.22C 2.86102e-08 14.056 0.7 11.116 2.1 8.4C 2.912 6.804 3.934 5.404 5.166 4.2C 6.398 2.996 8.064 2.002 10.164 1.218C 12.264 0.434 14.644 0.0419999 17.304 0.0419999C 18.2 0.0419999 18.998 0.126 19.698 0.294C 20.398 0.462 20.748 0.574 20.748 0.63C 20.748 1.974 20.65 3.514 20.454 5.25C 20.286 6.958 20.188 7.826 20.16 7.854C 20.02 7.994 19.432 8.218 18.396 8.526C 17.388 8.834 16.632 8.988 16.128 8.988L 16.128 8.736C 16.128 7.476 15.946 6.594 15.582 6.09C 15.218 5.586 14.588 5.334 13.692 5.334C 11.704 5.334 9.856 6.384 8.148 8.484C 6.44 10.556 5.586 13.412 5.586 17.052C 5.586 18.984 6.062 20.72 7.014 22.26C 7.518 23.072 8.246 23.73 9.198 24.234C 10.178 24.738 11.326 24.99 12.642 24.99C 15.274 24.99 17.836 23.772 20.328 21.336C 20.44 21.336 20.664 21.518 21 21.882C 21.364 22.218 21.714 22.68 22.05 23.268C 22.75 24.388 23.1 25.074 23.1 25.326C 23.1 25.578 22.666 26.054 21.798 26.754C 20.93 27.426 19.614 28.112 17.85 28.812C 16.086 29.512 14.28 29.862 12.432 29.862ZM 32.0296 14.322C 35.3336 14.014 37.7556 13.244 39.2956 12.012C 40.8636 10.752 41.6476 9.52 41.6476 8.316C 41.6476 7.084 41.0456 6.188 39.8416 5.628C 38.6376 5.04 37.1116 4.746 35.2636 4.746C 34.2836 4.746 33.2896 4.83 32.2816 4.998C 32.1136 6.202 32.0296 9.31 32.0296 14.322ZM 32.4916 28.812C 32.1836 29.12 31.5676 29.358 30.6436 29.526C 29.7196 29.722 28.9496 29.82 28.3336 29.82C 27.7176 29.82 27.1856 29.736 26.7376 29.568L 26.9896 5.334C 26.6256 4.886 26.2616 4.144 25.8976 3.108C 25.5616 2.072 25.3936 1.442 25.3936 1.218C 25.3936 0.966 25.4216 0.812 25.4776 0.756C 25.5336 0.672 26.4156 0.588 28.1236 0.504C 29.8596 0.392 31.6096 0.336 33.3736 0.336C 35.1376 0.336 36.7056 0.434 38.0776 0.63C 39.4496 0.826 40.8776 1.176 42.3616 1.68C 43.8456 2.156 45.0216 2.926 45.8896 3.99C 46.7576 5.054 47.1916 6.426 47.1916 8.106C 47.1916 9.758 46.6036 11.298 45.4276 12.726C 44.2516 14.154 42.6556 15.358 40.6396 16.338C 40.6396 16.786 41.5216 18.802 43.2856 22.386C 45.0496 25.942 46.4496 28.238 47.4856 29.274C 47.5136 29.302 47.5276 29.344 47.5276 29.4C 47.5276 29.484 47.3036 29.624 46.8556 29.82C 45.6236 30.408 44.2936 30.702 42.8656 30.702L 41.8156 30.618C 41.1996 30.002 40.1216 27.958 38.5816 24.486C 37.0696 21.014 36.2296 18.886 36.0616 18.102C 35.7256 18.298 34.3956 18.592 32.0716 18.984C 32.1276 24.612 32.2676 27.888 32.4916 28.812ZM 58.7898 24.822C 58.9018 24.822 58.9578 25.522 58.9578 26.922C 58.9578 28.294 58.8738 28.98 58.7058 28.98C 54.6458 28.98 51.7338 29.176 49.9698 29.568C 49.8858 29.568 49.8438 28.952 49.8438 27.72C 49.8438 26.488 49.9418 25.746 50.1378 25.494C 50.4738 25.326 51.0198 25.242 51.7758 25.242C 51.7198 24.29 51.6918 20.902 51.6918 15.078C 51.6918 9.226 51.7618 5.88 51.9018 5.04L 51.8178 5.04C 51.0618 5.04 50.4318 5.124 49.9278 5.292C 49.8718 5.292 49.8438 4.662 49.8438 3.402C 49.8438 2.114 49.9278 1.386 50.0958 1.218C 50.2638 1.05 51.3838 0.896 53.4558 0.756C 55.5278 0.616 57.2638 0.546 58.6638 0.546C 58.7478 0.546 58.7898 0.77 58.7898 1.218L 58.6638 4.326C 58.6638 4.438 58.6218 4.494 58.5378 4.494C 57.5858 4.494 57.0818 4.522 57.0258 4.578C 56.9698 4.606 56.9278 5.18 56.8998 6.3C 56.7878 10.724 56.7318 14.56 56.7318 17.808C 56.7318 21.028 56.8438 23.38 57.0678 24.864C 57.4318 24.836 58.0058 24.822 58.7898 24.822ZM 67.6367 25.2L 67.9307 7.728C 67.9307 6.3 67.8887 5.558 67.8047 5.502C 67.7487 5.418 67.5247 5.376 67.1327 5.376C 66.2647 5.376 64.7247 5.516 62.5127 5.796L 61.3787 5.964L 61.2527 4.872C 61.2527 3.528 61.4767 2.352 61.9247 1.344L 62.1767 0.84C 64.3607 0.812 66.8247 0.728 69.5687 0.588C 72.3407 0.42 74.8327 0.336 77.0447 0.336C 79.2847 0.336 80.4047 0.392 80.4047 0.504C 80.4047 1.316 80.3347 2.296 80.1947 3.444C 80.0547 4.564 79.8867 5.222 79.6907 5.418C 79.0467 5.278 77.8567 5.208 76.1207 5.208C 74.3847 5.208 73.4747 5.25 73.3907 5.334C 73.1947 5.53 73.0967 9.184 73.0967 16.296C 73.0967 23.408 73.5167 27.734 74.3567 29.274L 74.3567 29.316C 74.3567 29.568 73.8107 29.806 72.7187 30.03C 71.6267 30.254 70.7587 30.366 70.1147 30.366C 69.2187 30.366 68.4907 30.24 67.9307 29.988C 67.7347 29.764 67.6367 28.168 67.6367 25.2ZM 87.4063 25.2L 87.7003 7.728C 87.7003 6.3 87.6583 5.558 87.5743 5.502C 87.5183 5.418 87.2943 5.376 86.9023 5.376C 86.0343 5.376 84.4943 5.516 82.2823 5.796L 81.1483 5.964L 81.0223 4.872C 81.0223 3.528 81.2463 2.352 81.6943 1.344L 81.9463 0.84C 84.1303 0.812 86.5943 0.728 89.3383 0.588C 92.1103 0.42 94.6023 0.336 96.8143 0.336C 99.054 0.336 100.174 0.392 100.174 0.504C 100.174 1.316 100.104 2.296 99.964 3.444C 99.824 4.564 99.656 5.222 99.46 5.418C 98.816 5.278 97.6263 5.208 95.8903 5.208C 94.1543 5.208 93.2443 5.25 93.1603 5.334C 92.9643 5.53 92.8663 9.184 92.8663 16.296C 92.8663 23.408 93.2863 27.734 94.1263 29.274L 94.1263 29.316C 94.1263 29.568 93.5803 29.806 92.4883 30.03C 91.3963 30.254 90.5283 30.366 89.8843 30.366C 88.9883 30.366 88.2603 30.24 87.7003 29.988C 87.5043 29.764 87.4063 28.168 87.4063 25.2ZM 104.278 12.138L 104.32 7.602C 104.32 6.398 104.292 5.74 104.236 5.628C 103.928 5.32 103.522 4.578 103.018 3.402C 102.542 2.226 102.304 1.47 102.304 1.134C 102.612 0.826 107.526 0.672 117.046 0.672C 119.398 0.672 120.574 0.728 120.574 0.84C 120.574 1.428 120.434 2.072 120.154 2.772C 119.902 3.472 119.622 4.032 119.314 4.452C 119.034 4.872 118.824 5.068 118.684 5.04C 118.572 4.984 117.998 4.956 116.962 4.956C 115.954 4.956 114.54 5.026 112.72 5.166C 110.9 5.278 109.906 5.418 109.738 5.586C 109.57 5.754 109.486 7.294 109.486 10.206L 109.528 11.97C 110.648 11.942 112.3 11.928 114.484 11.928C 116.668 11.928 117.76 11.97 117.76 12.054C 117.76 13.062 117.424 14.21 116.752 15.498C 116.5 15.946 116.346 16.156 116.29 16.128C 115.562 16.128 114.316 16.198 112.552 16.338C 110.788 16.45 109.766 16.59 109.486 16.758C 109.458 16.786 109.444 17.962 109.444 20.286C 109.444 22.61 109.514 23.842 109.654 23.982C 110.102 24.43 112.51 24.654 116.878 24.654C 118.642 24.654 119.832 24.612 120.448 24.528C 121.064 24.416 121.372 24.374 121.372 24.402C 121.372 25.074 121.148 25.872 120.7 26.796C 120.252 27.72 119.776 28.42 119.272 28.896C 118.992 29.176 116.472 29.316 111.712 29.316C 106.98 29.316 104.53 29.204 104.362 28.98C 104.194 28.84 104.11 27.496 104.11 24.948C 104.11 22.372 104.138 19.656 104.194 16.8C 103.69 16.352 103.2 15.652 102.724 14.7C 102.276 13.748 102.052 12.936 102.052 12.264C 102.052 12.236 102.794 12.194 104.278 12.138ZM 130.959 14.322C 134.263 14.014 136.685 13.244 138.225 12.012C 139.793 10.752 140.577 9.52 140.577 8.316C 140.577 7.084 139.975 6.188 138.771 5.628C 137.567 5.04 136.041 4.746 134.193 4.746C 133.213 4.746 132.219 4.83 131.211 4.998C 131.043 6.202 130.959 9.31 130.959 14.322ZM 131.421 28.812C 131.113 29.12 130.497 29.358 129.573 29.526C 128.649 29.722 127.879 29.82 127.263 29.82C 126.647 29.82 126.115 29.736 125.667 29.568L 125.919 5.334C 125.555 4.886 125.191 4.144 124.827 3.108C 124.491 2.072 124.323 1.442 124.323 1.218C 124.323 0.966 124.351 0.812 124.407 0.756C 124.463 0.672 125.345 0.588 127.053 0.504C 128.789 0.392 130.539 0.336 132.303 0.336C 134.067 0.336 135.635 0.434 137.007 0.63C 138.379 0.826 139.807 1.176 141.291 1.68C 142.775 2.156 143.951 2.926 144.819 3.99C 145.687 5.054 146.121 6.426 146.121 8.106C 146.121 9.758 145.533 11.298 144.357 12.726C 143.181 14.154 141.585 15.358 139.569 16.338C 139.569 16.786 140.451 18.802 142.215 22.386C 143.979 25.942 145.379 28.238 146.415 29.274C 146.443 29.302 146.457 29.344 146.457 29.4C 146.457 29.484 146.233 29.624 145.785 29.82C 144.553 30.408 143.223 30.702 141.795 30.702L 140.745 30.618C 140.129 30.002 139.051 27.958 137.511 24.486C 135.999 21.014 135.159 18.886 134.991 18.102C 134.655 18.298 133.325 18.592 131.001 18.984C 131.057 24.612 131.197 27.888 131.421 28.812ZM 164.23 4.578C 163.782 4.522 163.264 4.494 162.676 4.494C 162.116 4.494 161.416 4.55 160.576 4.662C 159.764 4.774 158.91 4.956 158.014 5.208C 157.146 5.432 156.432 5.796 155.872 6.3C 155.312 6.804 155.032 7.42 155.032 8.148C 155.032 8.848 155.452 9.478 156.292 10.038C 157.16 10.57 158.196 11.074 159.4 11.55C 160.604 11.998 161.808 12.516 163.012 13.104C 164.244 13.692 165.28 14.56 166.12 15.708C 166.988 16.828 167.422 18.186 167.422 19.782C 167.422 22.61 166.064 25.018 163.348 27.006C 160.66 28.966 157.258 29.946 153.142 29.946C 151.07 29.946 149.53 29.834 148.522 29.61C 148.27 29.358 148.144 27.86 148.144 25.116C 148.144 22.344 148.2 20.678 148.312 20.118C 148.396 19.866 148.886 19.558 149.782 19.194C 150.678 18.83 151.546 18.648 152.386 18.648C 152.386 21.952 152.736 23.954 153.436 24.654C 153.716 24.934 154.248 25.074 155.032 25.074C 156.824 25.074 158.378 24.57 159.694 23.562C 161.038 22.554 161.71 21.364 161.71 19.992C 161.71 19.068 161.276 18.256 160.408 17.556C 159.54 16.856 158.476 16.254 157.216 15.75C 155.984 15.218 154.752 14.672 153.52 14.112C 152.288 13.524 151.238 12.726 150.37 11.718C 149.502 10.71 149.068 9.52 149.068 8.148C 149.068 6.104 150.286 4.242 152.722 2.562C 155.186 0.854 158.742 5.72205e-08 163.39 5.72205e-08C 164.482 5.72205e-08 165.098 0.0700001 165.238 0.21C 165.266 0.294 165.28 0.504 165.28 0.84C 165.28 1.148 165.182 1.764 164.986 2.688C 164.79 3.612 164.538 4.242 164.23 4.578Z"/>
</defs>
</svg>
