<?xml version="1.0" encoding="utf-8"?>
<!-- Generator: Adobe Illustrator 15.1.0, SVG Export Plug-In . SVG Version: 6.00 Build 0)  -->
<!DOCTYPE svg PUBLIC "-//W3C//DTD SVG 1.1//EN" "http://www.w3.org/Graphics/SVG/1.1/DTD/svg11.dtd">
<svg version="1.1" id="Layer_1" xmlns="http://www.w3.org/2000/svg" xmlns:xlink="http://www.w3.org/1999/xlink" x="0px" y="0px"
	 width="39.904px" height="39.523px" viewBox="0 0 39.904 39.523" enable-background="new 0 0 39.904 39.523" xml:space="preserve">
<g>
	<g>
		<path fill="#FFFFFF" d="M37.992,25.834c0,0,2.066-3.555,1.902-6.672c-0.164-3.121-2.176-5.711-2.176-5.711H26.187l0.047-11.98
			c0,0-2.652-1.355-6.261-1.465c-3.614-0.109-6.125,1.238-6.125,1.238v12.207H1.641c0,0-1.977,3.137-1.59,7.023
			c0.383,3.883,1.816,5.363,1.816,5.363h11.535V37.37c0,0,1.805,2.094,5.805,2.152c3.996,0.055,6.582-1.922,6.582-1.922
			l-0.004-11.766H37.992z M37.992,25.834"/>
	</g>
</g>
</svg>
