<?xml version="1.0" encoding="utf-8"?>
<!-- Generator: Adobe Illustrator 15.1.0, SVG Export Plug-In . SVG Version: 6.00 Build 0)  -->
<!DOCTYPE svg PUBLIC "-//W3C//DTD SVG 1.1//EN" "http://www.w3.org/Graphics/SVG/1.1/DTD/svg11.dtd">
<svg version="1.1" id="Layer_1" xmlns="http://www.w3.org/2000/svg" xmlns:xlink="http://www.w3.org/1999/xlink" x="0px" y="0px"
	 width="40.8px" height="33px" viewBox="0 0 40.8 33" enable-background="new 0 0 40.8 33" xml:space="preserve">
<g>
	<g>
		<defs>
			<rect id="SVGID_1_" width="40.8" height="33"/>
		</defs>
		<clipPath id="SVGID_2_">
			<use xlink:href="#SVGID_1_"  overflow="visible"/>
		</clipPath>
		<path clip-path="url(#SVGID_2_)" fill="#FFFFFF" d="M20.117,0C9.008,0,0,7.347,0,16.41c0,2.418,0.648,4.715,1.797,6.781
			c-0.043,0.078-0.082,0.164-0.113,0.25c-0.563,1.578-1.356,4.082-1.61,6.23c-0.109,0.914,0.668,1.563,1.563,1.348
			c1.398-0.328,3.48-0.973,5.429-2.129c3.512,2.449,8.071,3.93,13.051,3.93c11.113,0,20.117-7.348,20.117-16.41
			C40.234,7.347,31.23,0,20.117,0L20.117,0z M20.117,0"/>
	</g>
</g>
</svg>
